<svg width="186" height="164" viewBox="0 0 186 164" fill="none" xmlns="http://www.w3.org/2000/svg">
<path d="M54.025 0.956699L54 0.942265L53.975 0.956699L40.9846 8.4567L40.9596 8.47113V8.5V23.5V23.5289L40.9846 23.5433L53.975 31.0433L54 31.0577L54.025 31.0433L67.0154 23.5433L67.0404 23.5289V23.5V8.5V8.47113L67.0154 8.4567L54.025 0.956699Z" fill="#EFD6AC" stroke="black" stroke-width="0.1"/>
<path d="M80.025 0.956699L80 0.942265L79.975 0.956699L66.9846 8.4567L66.9596 8.47113V8.5V23.5V23.5289L66.9846 23.5433L79.975 31.0433L80 31.0577L80.025 31.0433L93.0154 23.5433L93.0404 23.5289V23.5V8.5V8.47113L93.0154 8.4567L80.025 0.956699Z" fill="#EFD6AC" stroke="black" stroke-width="0.1"/>
<path d="M132.025 0.956699L132 0.942265L131.975 0.956699L118.985 8.4567L118.96 8.47113V8.5V23.5V23.5289L118.985 23.5433L131.975 31.0433L132 31.0577L132.025 31.0433L145.015 23.5433L145.04 23.5289V23.5V8.5V8.47113L145.015 8.4567L132.025 0.956699Z" fill="#EFD6AC" stroke="black" stroke-width="0.1"/>
<path d="M106.025 0.956699L106 0.942265L105.975 0.956699L92.9846 8.4567L92.9596 8.47113V8.5V23.5V23.5289L92.9846 23.5433L105.975 31.0433L106 31.0577L106.025 31.0433L119.015 23.5433L119.04 23.5289V23.5V8.5V8.47113L119.015 8.4567L106.025 0.956699Z" fill="#EFD6AC" stroke="black" stroke-width="0.1"/>
<path d="M41.025 22.9567L41 22.9423L40.975 22.9567L27.9846 30.4567L27.9596 30.4711V30.5V45.5V45.5289L27.9846 45.5433L40.975 53.0433L41 53.0577L41.025 53.0433L54.0154 45.5433L54.0404 45.5289V45.5V30.5V30.4711L54.0154 30.4567L41.025 22.9567Z" fill="#EFD6AC" stroke="black" stroke-width="0.1"/>
<path d="M67 23L79.9904 30.5V45.5L67 53L54.0096 45.5V30.5L67 23Z" fill="#183A37"/>
<path d="M119 23L131.99 30.5V45.5L119 53L106.01 45.5V30.5L119 23Z" fill="#183A37"/>
<path d="M145.025 22.9567L145 22.9423L144.975 22.9567L131.985 30.4567L131.96 30.4711V30.5V45.5V45.5289L131.985 45.5433L144.975 53.0433L145 53.0577L145.025 53.0433L158.015 45.5433L158.04 45.5289V45.5V30.5V30.4711L158.015 30.4567L145.025 22.9567Z" fill="#EFD6AC" stroke="black" stroke-width="0.1"/>
<path d="M93 23L105.99 30.5V45.5L93 53L80.0096 45.5V30.5L93 23Z" fill="#183A37"/>
<path d="M131.975 163.043L132 163.058L132.025 163.043L145.015 155.543L145.04 155.529V155.5V140.5V140.471L145.015 140.457L132.025 132.957L132 132.942L131.975 132.957L118.985 140.457L118.96 140.471V140.5V155.5V155.529L118.985 155.543L131.975 163.043Z" fill="#EFD6AC" stroke="black" stroke-width="0.1"/>
<path d="M105.975 163.043L106 163.058L106.025 163.043L119.015 155.543L119.04 155.529V155.5V140.5V140.471L119.015 140.457L106.025 132.957L106 132.942L105.975 132.957L92.9846 140.457L92.9596 140.471V140.5V155.5V155.529L92.9846 155.543L105.975 163.043Z" fill="#EFD6AC" stroke="black" stroke-width="0.1"/>
<path d="M53.975 163.043L54 163.058L54.025 163.043L67.0154 155.543L67.0404 155.529V155.5V140.5V140.471L67.0154 140.457L54.025 132.957L54 132.942L53.975 132.957L40.9846 140.457L40.9596 140.471V140.5V155.5V155.529L40.9846 155.543L53.975 163.043Z" fill="#EFD6AC" stroke="black" stroke-width="0.1"/>
<path d="M79.975 163.043L80 163.058L80.025 163.043L93.0154 155.543L93.0404 155.529V155.5V140.5V140.471L93.0154 140.457L80.025 132.957L80 132.942L79.975 132.957L66.9846 140.457L66.9596 140.471V140.5V155.5V155.529L66.9846 155.543L79.975 163.043Z" fill="#EFD6AC" stroke="black" stroke-width="0.1"/>
<path d="M144.975 141.043L145 141.058L145.025 141.043L158.015 133.543L158.04 133.529V133.5V118.5V118.471L158.015 118.457L145.025 110.957L145 110.942L144.975 110.957L131.985 118.457L131.96 118.471V118.5V133.5V133.529L131.985 133.543L144.975 141.043Z" fill="#EFD6AC" stroke="black" stroke-width="0.1"/>
<path d="M119 141L106.01 133.5V118.5L119 111L131.99 118.5V133.5L119 141Z" fill="#183A37"/>
<path d="M67 141L54.0096 133.5V118.5L67 111L79.9904 118.5V133.5L67 141Z" fill="#183A37"/>
<path d="M40.975 141.043L41 141.058L41.025 141.043L54.0154 133.543L54.0404 133.529V133.5V118.5V118.471L54.0154 118.457L41.025 110.957L41 110.942L40.975 110.957L27.9846 118.457L27.9596 118.471V118.5L27.9596 133.5V133.529L27.9846 133.543L40.975 141.043Z" fill="#EFD6AC" stroke="black" stroke-width="0.1"/>
<path d="M93 141L80.0096 133.5V118.5L93 111L105.99 118.5V133.5L93 141Z" fill="#183A37"/>
<path d="M28.025 44.9567L28 44.9423L27.975 44.9567L14.9846 52.4567L14.9596 52.4711V52.5V67.5V67.5289L14.9846 67.5433L27.975 75.0433L28 75.0577L28.025 75.0433L41.0154 67.5433L41.0404 67.5289V67.5V52.5V52.4711L41.0154 52.4567L28.025 44.9567Z" fill="#EFD6AC" stroke="black" stroke-width="0.1"/>
<path d="M54 45L66.9904 52.5V67.5L54 75L41.0096 67.5V52.5L54 45Z" fill="#183A37"/>
<path d="M106.025 44.9567L106 44.9423L105.975 44.9567L92.9846 52.4567L92.9596 52.4711V52.5V67.5V67.5289L92.9846 67.5433L105.975 75.0433L106 75.0577L106.025 75.0433L119.015 67.5433L119.04 67.5289V67.5V52.5V52.4711L119.015 52.4567L106.025 44.9567Z" fill="#EFD6AC" stroke="black" stroke-width="0.1"/>
<path d="M132.025 44.9567L132 44.9423L131.975 44.9567L118.985 52.4567L118.96 52.4711V52.5V67.5V67.5289L118.985 67.5433L131.975 75.0433L132 75.0577L132.025 75.0433L145.015 67.5433L145.04 67.5289V67.5V52.5V52.4711L145.015 52.4567L132.025 44.9567Z" fill="#EFD6AC" stroke="black" stroke-width="0.1"/>
<path d="M158.025 44.9567L158 44.9423L157.975 44.9567L144.985 52.4567L144.96 52.4711V52.5V67.5V67.5289L144.985 67.5433L157.975 75.0433L158 75.0577L158.025 75.0433L171.015 67.5433L171.04 67.5289V67.5V52.5V52.4711L171.015 52.4567L158.025 44.9567Z" fill="#EFD6AC" stroke="black" stroke-width="0.1"/>
<path d="M80.025 44.9567L80 44.9423L79.975 44.9567L66.9846 52.4567L66.9596 52.4711V52.5V67.5V67.5289L66.9846 67.5433L79.975 75.0433L80 75.0577L80.025 75.0433L93.0154 67.5433L93.0404 67.5289V67.5V52.5V52.4711L93.0154 52.4567L80.025 44.9567Z" fill="#EFD6AC" stroke="black" stroke-width="0.1"/>
<path d="M28.025 88.9567L28 88.9423L27.975 88.9567L14.9846 96.4567L14.9596 96.4711V96.5V111.5V111.529L14.9846 111.543L27.975 119.043L28 119.058L28.025 119.043L41.0154 111.543L41.0404 111.529V111.5V96.5V96.4711L41.0154 96.4567L28.025 88.9567Z" fill="#EFD6AC" stroke="black" stroke-width="0.1"/>
<path d="M54.025 88.9567L54 88.9423L53.975 88.9567L40.9846 96.4567L40.9596 96.4711V96.5V111.5V111.529L40.9846 111.543L53.975 119.043L54 119.058L54.025 119.043L67.0154 111.543L67.0404 111.529V111.5V96.5V96.4711L67.0154 96.4567L54.025 88.9567Z" fill="#EFD6AC" stroke="black" stroke-width="0.1"/>
<path d="M106.025 88.9567L106 88.9423L105.975 88.9567L92.9846 96.4567L92.9596 96.4711V96.5V111.5V111.529L92.9846 111.543L105.975 119.043L106 119.058L106.025 119.043L119.015 111.543L119.04 111.529V111.5V96.5V96.4711L119.015 96.4567L106.025 88.9567Z" fill="#EFD6AC" stroke="black" stroke-width="0.1"/>
<path d="M132 89L144.99 96.5V111.5L132 119L119.01 111.5V96.5L132 89Z" fill="#183A37"/>
<path d="M158.025 88.9567L158 88.9423L157.975 88.9567L144.985 96.4567L144.96 96.4711V96.5V111.5V111.529L144.985 111.543L157.975 119.043L158 119.058L158.025 119.043L171.015 111.543L171.04 111.529V111.5V96.5V96.4711L171.015 96.4567L158.025 88.9567Z" fill="#EFD6AC" stroke="black" stroke-width="0.1"/>
<path d="M80.025 88.9567L80 88.9423L79.975 88.9567L66.9846 96.4567L66.9596 96.4711V96.5V111.5V111.529L66.9846 111.543L79.975 119.043L80 119.058L80.025 119.043L93.0154 111.543L93.0404 111.529V111.5V96.5V96.4711L93.0154 96.4567L80.025 88.9567Z" fill="#EFD6AC" stroke="black" stroke-width="0.1"/>
<path d="M15.025 66.9567L15 66.9423L14.975 66.9567L1.98462 74.4567L1.95962 74.4711V74.5V89.5V89.5289L1.98462 89.5433L14.975 97.0433L15 97.0577L15.025 97.0433L28.0154 89.5433L28.0404 89.5289V89.5V74.5V74.4711L28.0154 74.4567L15.025 66.9567Z" fill="#EFD6AC" stroke="black" stroke-width="0.1"/>
<path d="M41.025 66.9567L41 66.9423L40.975 66.9567L27.9846 74.4567L27.9596 74.4711V74.5V89.5V89.5289L27.9846 89.5433L40.975 97.0433L41 97.0577L41.025 97.0433L54.0154 89.5433L54.0404 89.5289V89.5V74.5V74.4711L54.0154 74.4567L41.025 66.9567Z" fill="#EFD6AC" stroke="black" stroke-width="0.1"/>
<path d="M93 67L105.99 74.5V89.5L93 97L80.0096 89.5V74.5L93 67Z" fill="#183A37"/>
<path d="M119 67L131.99 74.5V89.5L119 97L106.01 89.5V74.5L119 67Z" fill="#183A37"/>
<path d="M145.025 66.9567L145 66.9423L144.975 66.9567L131.985 74.4567L131.96 74.4711V74.5V89.5V89.5289L131.985 89.5433L144.975 97.0433L145 97.0577L145.025 97.0433L158.015 89.5433L158.04 89.5289V89.5V74.5V74.4711L158.015 74.4567L145.025 66.9567Z" fill="#EFD6AC" stroke="black" stroke-width="0.1"/>
<path d="M171.025 66.9567L171 66.9423L170.975 66.9567L157.985 74.4567L157.96 74.4711V74.5V89.5V89.5289L157.985 89.5433L170.975 97.0433L171 97.0577L171.025 97.0433L184.015 89.5433L184.04 89.5289V89.5V74.5V74.4711L184.015 74.4567L171.025 66.9567Z" fill="#EFD6AC" stroke="black" stroke-width="0.1"/>
<path d="M67 67L79.9904 74.5V89.5L67 97L54.0096 89.5V74.5L67 67Z" fill="#183A37"/>
</svg>
