<svg width="26" height="24" viewBox="0 0 26 24" fill="none" xmlns="http://www.w3.org/2000/svg">
<path d="M24.5997 12C24.5997 18.3304 19.2262 23.5 12.5499 23.5C5.87356 23.5 0.5 18.3304 0.5 12C0.5 5.6696 5.87356 0.5 12.5499 0.5C19.2262 0.5 24.5997 5.6696 24.5997 12Z" fill="#61ADF2" stroke="black"/>
<mask id="mask0_484_3" style="mask-type:luminance" maskUnits="userSpaceOnUse" x="0" y="0" width="26" height="24">
<path d="M24.5997 12C24.5997 18.3304 19.2262 23.5 12.5499 23.5C5.87356 23.5 0.5 18.3304 0.5 12C0.5 5.6696 5.87356 0.5 12.5499 0.5C19.2262 0.5 24.5997 5.6696 24.5997 12Z" fill="white" stroke="white"/>
</mask>
<g mask="url(#mask0_484_3)">
<path d="M21.8468 24.4372C21.8468 29.177 17.8218 33.0572 12.8089 33.0572C7.79606 33.0572 3.771 29.177 3.771 24.4372C3.771 19.6973 7.79606 15.8171 12.8089 15.8171C17.8218 15.8171 21.8468 19.6973 21.8468 24.4372Z" fill="white" stroke="black"/>
<path d="M16.7401 9.61933C16.7401 11.9733 14.7378 13.9193 12.2202 13.9193C9.7025 13.9193 7.7002 11.9733 7.7002 9.61933C7.7002 7.26539 9.7025 5.31934 12.2202 5.31934C14.7378 5.31934 16.7401 7.26539 16.7401 9.61933Z" fill="white" stroke="black"/>
</g>
</svg>
